<?xml version="1.0" encoding="iso-8859-1"?>
<!-- Generator: Adobe Illustrator 19.0.0, SVG Export Plug-In . SVG Version: 6.00 Build 0)  -->
<svg version="1.1" id="Layer_1" xmlns="http://www.w3.org/2000/svg" xmlns:xlink="http://www.w3.org/1999/xlink" x="0px" y="0px"
	 viewBox="0 0 488 488" style="enable-background:new 0 0 488 488;" xml:space="preserve">
<g transform="translate(0 -540.36)">
	<g>
		<g>
			<path d="M71.7,733.06h222.6c5.5,0,10-4.5,10-10s-4.5-10-10-10H71.7c-5.5,0-10,4.5-10,10S66.2,733.06,71.7,733.06z"/>
			<path d="M183,835.06H71.7c-5.5,0-10,4.5-10,10s4.5,10,10,10H183c5.5,0,10-4.5,10-10S188.5,835.06,183,835.06z"/>
			<path d="M183,896.06H71.7c-5.5,0-10,4.5-10,10s4.5,10,10,10H183c5.5,0,10-4.5,10-10S188.5,896.06,183,896.06z"/>
			<path d="M71.7,794.06h222.6c5.5,0,10-4.5,10-10s-4.5-10-10-10H71.7c-5.5,0-10,4.5-10,10S66.2,794.06,71.7,794.06z"/>
			<path d="M485.1,761.76l-45.7-45.7c-1.9-1.9-4.4-2.9-7.1-2.9s-5.2,1.1-7.1,2.9l-28.7,28.7v-82.7c0-0.3,0-0.6,0-0.9
				c0-0.1,0-0.2,0-0.4s0-0.4-0.1-0.5c0-0.1-0.1-0.3-0.1-0.4c0-0.1-0.1-0.3-0.1-0.4c0-0.2-0.1-0.3-0.1-0.5c0-0.1-0.1-0.3-0.1-0.4
				c-0.1-0.2-0.1-0.3-0.2-0.4c-0.1-0.1-0.1-0.3-0.2-0.4c-0.1-0.1-0.1-0.3-0.2-0.4c-0.1-0.1-0.2-0.3-0.3-0.4
				c-0.1-0.1-0.1-0.2-0.2-0.3c-0.2-0.2-0.3-0.5-0.5-0.7l-91.4-112c-0.2-0.3-0.5-0.5-0.7-0.8c-0.1-0.1-0.1-0.1-0.2-0.2
				c-0.2-0.2-0.4-0.3-0.6-0.5c-0.1-0.1-0.2-0.1-0.3-0.2c-0.2-0.1-0.4-0.3-0.6-0.4c-0.1-0.1-0.2-0.1-0.3-0.2
				c-0.2-0.1-0.4-0.2-0.6-0.3c-0.1-0.1-0.2-0.1-0.3-0.1c-0.2-0.1-0.5-0.2-0.7-0.3c-0.1,0-0.2-0.1-0.3-0.1c-0.2-0.1-0.5-0.1-0.7-0.2
				c-0.1,0-0.2-0.1-0.3-0.1c-0.3-0.1-0.5-0.1-0.8-0.1c-0.1,0-0.2,0-0.3,0c-0.4,0-0.7-0.1-1.1-0.1H10c-5.5,0-10,4.5-10,10v468
				c0,5.5,4.5,10,10,10h376.5c5.5,0,10-4.5,10-10v-154.1l88.5-88.1c1.9-2.1,3-4.7,3-7.3l0,0C488,766.16,486.9,763.66,485.1,761.76z
				 M305.1,578.06l60.4,74h-60.4V578.06z M376.9,1008.06l-0.4,0H20v-448h265.1v102c0,5.5,4.5,10,10,10h81.4v92.6l-102.3,102.3
				c-0.2,0.2-0.3,0.3-0.4,0.5c-0.1,0.1-0.2,0.2-0.2,0.3c-0.4,0.6-0.8,1.1-1.1,1.7v0.1c-0.1,0.3-0.3,0.6-0.4,0.9l-27.4,72.4
				c-1.4,3.7-0.5,7.8,2.3,10.6c1.9,1.9,4.5,2.9,7.1,2.9c1.2,0,2.4-0.2,3.5-0.6l73.2-27.4h0.1c0.2-0.1,0.4-0.2,0.7-0.3
				c0.1,0,0.2-0.1,0.3-0.1c0.2-0.1,0.4-0.2,0.6-0.4c0.1-0.1,0.2-0.1,0.3-0.2c0.2-0.1,0.4-0.3,0.6-0.4c0.1-0.1,0.2-0.1,0.3-0.2
				c0.2-0.1,0.3-0.3,0.5-0.4c0.1-0.1,0.2-0.2,0.3-0.2l42.4-42.2V1008.06z M285.3,891.86l23.6,23.2l-37.8,14.2L285.3,891.86z
				 M327,904.86l-31.5-31l136.7-136.7l31.6,31.6L327,904.86z"/>
		</g>
	</g>
</g>
<g>
</g>
<g>
</g>
<g>
</g>
<g>
</g>
<g>
</g>
<g>
</g>
<g>
</g>
<g>
</g>
<g>
</g>
<g>
</g>
<g>
</g>
<g>
</g>
<g>
</g>
<g>
</g>
<g>
</g>
</svg>
