<svg height="486pt" viewBox="0 0 486 486.00258" width="486pt" xmlns="http://www.w3.org/2000/svg"><path d="m211 221c0-4.417969-3.578125-8-8-8h-170c-4.417969 0-8 3.582031-8 8v211c0 4.417969 3.582031 8 8 8h170c4.421875 0 8-3.582031 8-8zm-16 203h-154v-195h154zm0 0"/><path d="m126.050781 447h-16.035156c-4.421875 0-8 3.582031-8 8s3.578125 8 8 8h16.035156c4.417969 0 8-3.582031 8-8s-3.582031-8-8-8zm0 0"/><path d="m462.171875 0h-108.429687c-13.378907 0-24.742188 10.453125-24.742188 23.832031v42.167969h-245.855469c-24.960937.074219-45.152343 20.335938-45.144531 45.292969v76.707031h-4.898438c-18.4375 0-33.101562 15.335938-33.101562 33.792969v231.109375c-.0507812 8.796875 3.421875 17.25 9.648438 23.46875 6.222656 6.21875 14.675781 9.6875 23.472656 9.628906h176.441406c7.21875.0625 14.144531-2.828125 19.179688-8 5.023437-5.179688 8.257812-11.753906 7.257812-18.925781v-39.074219h186.519531c25.023438-.042969 45.332031-20.265625 45.480469-45.292969v-28.605469c-.117188-4.492187-3.78125-8.078124-8.273438-8.101562h-11.726562v-78h14.171875c13.378906 0 23.828125-11.355469 23.828125-24.734375v-211.433594c.074219-6.34375-2.410156-12.445312-6.898438-16.933593-4.484374-4.484376-10.589843-6.9726568-16.929687-6.898438zm-117.171875 52h125v143h-125zm8.742188-36h108.429687c2.097656-.078125 4.136719.722656 5.625 2.207031 1.484375 1.488281 2.285156 3.527344 2.203125 5.625v12.167969h-125v-12.167969c0-4.554687 4.1875-7.832031 8.742188-7.832031zm-299.742188 95.292969c-.019531-16.125 13.015625-29.226563 29.144531-29.292969h245.855469v23h-246.347656c-4.417969 0-7.652344 4.019531-7.652344 8.4375v74.5625h-21zm163.5 355.574219c-2.101562 2.09375-4.972656 3.226562-7.9375 3.132812h-176.414062c-4.566407.066406-8.960938-1.714844-12.191407-4.9375-3.226562-3.226562-5.015625-7.617188-4.957031-12.183594v-231.0625c0-9.664062 7.480469-17.816406 17.121094-17.816406h169.785156c9.664062 0 17.101562 8.152344 17.101562 17.792969v237.402343c0 .082032.242188.054688.242188.136719.175781 2.785157-.820312 5.515625-2.75 7.535157zm-14.570312-278.867188h-111.929688v-67h238v114.265625c.203125 13.582031 11.164062 24.539063 24.742188 24.734375h41.257812v78h-97.414062c-2.238282.019531-4.371094.972656-5.882813 2.628906l-7.550781 8.074219c-5.546875 5.960937-13.332032 9.332031-21.476563 9.296875h-26.675781v-136.230469c0-18.433593-14.613281-33.769531-33.070312-33.769531zm249.070312 186.707031c-.140625 16.195313-13.289062 29.257813-29.480469 29.292969h-186.519531v-30h26.675781c12.613281.019531 24.664063-5.226562 33.242188-14.476562l5.175781-5.523438h150.90625zm-20-36.707031h-21v-78h21zm30.171875-94h-108.429687c-4.742188-.183594-8.550782-3.988281-8.742188-8.734375v-24.265625h125v24.265625c0 4.558594-3.273438 8.734375-7.828125 8.734375zm0 0"/><path d="m419 218h-21c-4.417969 0-8 3.582031-8 8s3.582031 8 8 8h21c4.421875 0 8-3.582031 8-8s-3.578125-8-8-8zm0 0"/></svg>