<?xml version="1.0" encoding="UTF-8"?>
<svg width="510px" height="419px" viewBox="0 0 510 419" version="1.1" xmlns="http://www.w3.org/2000/svg" xmlns:xlink="http://www.w3.org/1999/xlink">
    <!-- Generator: Sketch 54.1 (76490) - https://sketchapp.com -->
    <title>Header shape 2</title>
    <desc>Created with Sketch.</desc>
    <defs>
        <linearGradient x1="115.497655%" y1="46.0136896%" x2="31.001292%" y2="60.6070342%" id="linearGradient-1">
            <stop stop-color="#7E77FF" offset="0%"></stop>
            <stop stop-color="#FFFFFF" stop-opacity="0.1" offset="100%"></stop>
        </linearGradient>
    </defs>
    <g id="Page-1" stroke="none" stroke-width="1" fill="none" fill-rule="evenodd" opacity="0.100000001">
        <g id="Preview-Landing-Page" transform="translate(0.000000, -226.000000)" fill="url(#linearGradient-1)">
            <path d="M22.4515642,286.657717 L371.451564,286.657717 C398.961466,286.657717 424.686989,294.043305 446.761063,306.947412 C468.835137,319.851519 487.257762,338.274144 500.161869,360.348218 C513.065976,382.422292 520.451564,408.147815 520.451564,435.657717 C520.451564,463.167619 513.065976,488.893141 500.161869,510.967215 C487.257762,533.04129 468.835137,551.463915 446.761063,564.368022 C424.686989,577.272129 398.961466,584.657717 371.451564,584.657717 L22.4515642,584.657717 C-5.05833753,584.657717 -30.7838603,577.272129 -52.8579344,564.368022 C-74.9320085,551.463915 -93.3546338,533.04129 -106.258741,510.967215 C-119.162848,488.893141 -126.548436,463.167619 -126.548436,435.657717 C-126.548436,408.147815 -119.162848,382.422292 -106.258741,360.348218 C-93.3546338,338.274144 -74.9320085,319.851519 -52.8579344,306.947412 C-30.7838603,294.043305 -5.05833753,286.657717 22.4515642,286.657717 Z" id="Header-shape-2" transform="translate(196.951564, 435.657717) rotate(-20.000000) translate(-196.951564, -435.657717) "></path>
        </g>
    </g>
</svg>